<svg xmlns="http://www.w3.org/2000/svg" xmlns:xlink="http://www.w3.org/1999/xlink" width="144" height="144" viewBox="0 0 144 144">
  <defs>
    <filter id="Icon_awesome-city" x="31" y="36" width="81.833" height="72.667" filterUnits="userSpaceOnUse">
      <feOffset input="SourceAlpha"/>
      <feGaussianBlur stdDeviation="6" result="blur"/>
      <feFlood flood-opacity="0.161"/>
      <feComposite operator="in" in2="blur"/>
      <feComposite in="SourceGraphic"/>
    </filter>
  </defs>
  <g id="circle_dummy" transform="translate(-487 -117)">
    <circle id="Ellipse_1" data-name="Ellipse 1" cx="50" cy="50" r="50" transform="translate(509 139)" fill="#e8e8e8"/>
    <g id="Ellipse_2" data-name="Ellipse 2" transform="translate(487 117)" fill="none" stroke="#e8e8e8" stroke-width="1">
      <circle cx="72" cy="72" r="72" stroke="none"/>
      <circle cx="72" cy="72" r="71.5" fill="none"/>
    </g>
    <g id="Ellipse_3" data-name="Ellipse 3" transform="translate(498 128)" fill="none" stroke="#e8e8e8" stroke-width="2">
      <circle cx="61" cy="61" r="61" stroke="none"/>
      <circle cx="61" cy="61" r="60" fill="none"/>
    </g>
    <g transform="matrix(1, 0, 0, 1, 487, 117)" filter="url(#Icon_awesome-city)">
      <path id="Icon_awesome-city-2" data-name="Icon awesome-city" d="M44.115,13.75h-9.74V1.719A1.718,1.718,0,0,0,32.656,0H22.344a1.718,1.718,0,0,0-1.719,1.719V6.875H16.042V1.146A1.146,1.146,0,0,0,14.9,0H13.75A1.146,1.146,0,0,0,12.6,1.146V6.875H8.021V1.146A1.146,1.146,0,0,0,6.875,0H5.729A1.146,1.146,0,0,0,4.583,1.146V6.875H1.719A1.718,1.718,0,0,0,0,8.594V34.375a2.292,2.292,0,0,0,2.292,2.292h41.25a2.292,2.292,0,0,0,2.292-2.292V15.469A1.719,1.719,0,0,0,44.115,13.75ZM9.167,28.932a.859.859,0,0,1-.859.859H5.443a.859.859,0,0,1-.859-.859V26.068a.859.859,0,0,1,.859-.859H8.307a.859.859,0,0,1,.859.859Zm0-6.875a.859.859,0,0,1-.859.859H5.443a.859.859,0,0,1-.859-.859V19.193a.859.859,0,0,1,.859-.859H8.307a.859.859,0,0,1,.859.859Zm0-6.875a.859.859,0,0,1-.859.859H5.443a.859.859,0,0,1-.859-.859V12.318a.859.859,0,0,1,.859-.859H8.307a.859.859,0,0,1,.859.859Zm9.167,13.75a.859.859,0,0,1-.859.859H14.609a.859.859,0,0,1-.859-.859V26.068a.859.859,0,0,1,.859-.859h2.865a.859.859,0,0,1,.859.859Zm0-6.875a.859.859,0,0,1-.859.859H14.609a.859.859,0,0,1-.859-.859V19.193a.859.859,0,0,1,.859-.859h2.865a.859.859,0,0,1,.859.859Zm0-6.875a.859.859,0,0,1-.859.859H14.609a.859.859,0,0,1-.859-.859V12.318a.859.859,0,0,1,.859-.859h2.865a.859.859,0,0,1,.859.859Zm11.458,6.875a.859.859,0,0,1-.859.859H26.068a.859.859,0,0,1-.859-.859V19.193a.859.859,0,0,1,.859-.859h2.865a.859.859,0,0,1,.859.859Zm0-6.875a.859.859,0,0,1-.859.859H26.068a.859.859,0,0,1-.859-.859V12.318a.859.859,0,0,1,.859-.859h2.865a.859.859,0,0,1,.859.859Zm0-6.875a.859.859,0,0,1-.859.859H26.068a.859.859,0,0,1-.859-.859V5.443a.859.859,0,0,1,.859-.859h2.865a.859.859,0,0,1,.859.859ZM41.25,28.932a.859.859,0,0,1-.859.859H37.526a.859.859,0,0,1-.859-.859V26.068a.859.859,0,0,1,.859-.859h2.865a.859.859,0,0,1,.859.859Zm0-6.875a.859.859,0,0,1-.859.859H37.526a.859.859,0,0,1-.859-.859V19.193a.859.859,0,0,1,.859-.859h2.865a.859.859,0,0,1,.859.859Z" transform="translate(49 54)" fill="#fff"/>
    </g>
  </g>
</svg>
