<svg xmlns="http://www.w3.org/2000/svg" width="16" height="14.666" viewBox="0 0 16 14.666">
  <g id="Group_4093" data-name="Group 4093" transform="translate(-25 -171.666)">
    <path id="Path_8747" data-name="Path 8747" d="M5,5.75H6.333v11H5Z" transform="translate(23.333 169.083)" fill="#fff"/>
    <path id="Path_8748" data-name="Path 8748" d="M5.75,10H17.417v1.333H5.75Z" transform="translate(21.25 167.667)" fill="#fff"/>
    <path id="Path_8749" data-name="Path 8749" d="M5.75,16H17.417v1.333H5.75Z" transform="translate(21.25 165.667)" fill="#fff"/>
    <path id="Path_8750" data-name="Path 8750" d="M14,1H2A2,2,0,0,0,0,3V13.667a2,2,0,0,0,2,2H14a2,2,0,0,0,2-2V3A2,2,0,0,0,14,1Zm0,13.334H2a.667.667,0,0,1-.667-.667V4.333H14.667v9.333A.667.667,0,0,1,14,14.334Z" transform="translate(25 170.667)" fill="#fff"/>
  </g>
</svg>
