<svg xmlns="http://www.w3.org/2000/svg" width="17" height="17" viewBox="0 0 17 17">
  <path id="projects" d="M8.5,0A8.5,8.5,0,1,0,17,8.5,8.5,8.5,0,0,0,8.5,0Zm0,10.625A2.125,2.125,0,1,1,10.625,8.5,2.125,2.125,0,0,1,8.5,10.625Zm0-8.5a6.2,6.2,0,0,1,2.763.638L9.609,4.416a3.815,3.815,0,0,0-2.22,0L5.738,2.763A6.2,6.2,0,0,1,8.5,2.125ZM2.125,8.5a6.2,6.2,0,0,1,.637-2.762L4.416,7.391a3.815,3.815,0,0,0,0,2.22L2.763,11.262A6.2,6.2,0,0,1,2.125,8.5ZM8.5,14.875a6.2,6.2,0,0,1-2.762-.637l1.653-1.653a3.815,3.815,0,0,0,2.22,0l1.652,1.653a6.2,6.2,0,0,1-2.762.637Zm5.738-3.613L12.584,9.609a3.815,3.815,0,0,0,0-2.22l1.653-1.652A6.3,6.3,0,0,1,14.238,11.262Z" fill="#fff"/>
</svg>
