<svg xmlns="http://www.w3.org/2000/svg" width="15.219" height="16.604" viewBox="0 0 15.219 16.604">
  <g id="document" transform="translate(-1)">
    <path id="Path_364" data-name="Path 364" d="M3.075,4.669A3.29,3.29,0,0,1,6.361,1.384h6.318A1.9,1.9,0,0,0,10.858,0H2.9A1.9,1.9,0,0,0,1,1.9V12.625a1.9,1.9,0,0,0,1.9,1.9h.173Z" fill="#fff"/>
    <path id="Path_365" data-name="Path 365" d="M15.858,4H7.9A1.9,1.9,0,0,0,6,5.9V15.933a1.9,1.9,0,0,0,1.9,1.9h7.955a1.9,1.9,0,0,0,1.9-1.9V5.9A1.9,1.9,0,0,0,15.858,4ZM14.474,15.76H9.286a.519.519,0,0,1,0-1.038h5.188a.519.519,0,0,1,0,1.038Zm0-2.767H9.286a.519.519,0,0,1,0-1.038h5.188a.519.519,0,0,1,0,1.038Zm0-2.421H9.286a.519.519,0,0,1,0-1.038h5.188a.519.519,0,0,1,0,1.038Zm0-2.767H9.286a.519.519,0,0,1,0-1.038h5.188a.519.519,0,0,1,0,1.038Z" transform="translate(-1.541 -1.233)" fill="#fff"/>
  </g>
</svg>
