<svg id="technical-support" xmlns="http://www.w3.org/2000/svg" width="14" height="13.999" viewBox="0 0 14 13.999">
  <path id="Path_8776" data-name="Path 8776" d="M175.281,59.3h.82a1.457,1.457,0,0,0,1.253,1.44v-.47a2.275,2.275,0,1,0-4.55,0v.484h1.022A1.456,1.456,0,0,0,175.281,59.3Z" transform="translate(-168.079 -56.414)" fill="#fff"/>
  <path id="Path_8777" data-name="Path 8777" d="M75.613,6.989h.774a3.466,3.466,0,0,1-.023-.395V3.861a3.1,3.1,0,0,1,6.191,0V6.594a3.463,3.463,0,0,1-.023.395h.774a1.118,1.118,0,0,0,1.117-1.117V4.628a1.118,1.118,0,0,0-1.071-1.116,3.912,3.912,0,0,0-7.784,0A1.118,1.118,0,0,0,74.5,4.628V5.872A1.118,1.118,0,0,0,75.613,6.989Z" transform="translate(-72.459 0)" fill="#fff"/>
  <path id="Path_8778" data-name="Path 8778" d="M175.08,158.152a2.211,2.211,0,0,0,1.742-.875h-1.271v-.82h1.694a2.61,2.61,0,0,0,.11-.753v-1.438a2.276,2.276,0,0,1-1.663-.964,2.274,2.274,0,0,1-1.865.973H172.8V155.7A2.369,2.369,0,0,0,175.08,158.152Z" transform="translate(-168.08 -149.11)" fill="#fff"/>
  <path id="Path_8779" data-name="Path 8779" d="M176.6,321.957v-1.095a2.983,2.983,0,0,1-4.6.013v1.08h0a4.149,4.149,0,0,0,2.293.991A4.193,4.193,0,0,0,176.6,321.957Z" transform="translate(-167.296 -312.088)" fill="#fff"/>
  <path id="Path_8780" data-name="Path 8780" d="M12.966,372.818l-2.743-.9A5.52,5.52,0,0,1,7,373.427a5.453,5.453,0,0,1-3.213-1.51l-2.75.9A1.5,1.5,0,0,0,0,374.246v1.5H2.824v-1.422h.82v1.422h6.711v-1.422h.82v1.422H14v-1.5A1.5,1.5,0,0,0,12.966,372.818Z" transform="translate(0 -361.747)" fill="#fff"/>
</svg>
