<svg id="trash_1_" data-name="trash (1)" xmlns="http://www.w3.org/2000/svg" width="11.313" height="14.54" viewBox="0 0 11.313 14.54">
  <path id="Path_8805" data-name="Path 8805" d="M126.333.869h2.405v.4h.869V.812A.813.813,0,0,0,128.8,0h-2.519a.813.813,0,0,0-.812.812v.461h.869Zm0,0" transform="translate(-121.88)" fill="#fff"/>
  <path id="Path_8806" data-name="Path 8806" d="M49.139,167.75H40.878a.389.389,0,0,0-.285.123.379.379,0,0,0-.1.29l.691,8.429a.912.912,0,0,0,.912.833h5.824a.912.912,0,0,0,.912-.833l.691-8.429a.379.379,0,0,0-.1-.29.389.389,0,0,0-.285-.123Zm-6.261,8.777H42.85a.437.437,0,0,1-.439-.408l-.433-6.92a.44.44,0,0,1,.878-.053l.433,6.92a.431.431,0,0,1-.109.315.442.442,0,0,1-.3.146Zm2.575-.433a.44.44,0,0,1-.88,0v-6.92a.44.44,0,0,1,.88,0Zm2.584-6.894-.413,6.92a.437.437,0,0,1-.439.409h-.026a.442.442,0,0,1-.3-.145.431.431,0,0,1-.11-.314l.413-6.92a.44.44,0,0,1,.878.051Zm0,0" transform="translate(-39.352 -162.885)" fill="#fff"/>
  <path id="Path_8807" data-name="Path 8807" d="M11.293,77.444l-.288-.855a.557.557,0,0,0-.529-.377H.837a.557.557,0,0,0-.529.377l-.288.855a.356.356,0,0,0,.05.323.364.364,0,0,0,.294.149H10.95a.36.36,0,0,0,.192-.055.356.356,0,0,0,.152-.417Zm0,0" transform="translate(0 -74.069)" fill="#fff"/>
</svg>
